<?xml version="1.0" encoding="utf-8"?>
<!-- Generator: Adobe Illustrator 25.3.1, SVG Export Plug-In . SVG Version: 6.00 Build 0)  -->
<svg version="1.1" id="Camada_1" xmlns="http://www.w3.org/2000/svg" xmlns:xlink="http://www.w3.org/1999/xlink" x="0px" y="0px"
	 viewBox="0 0 74 39" style="enable-background:new 0 0 74 39;" xml:space="preserve">
<g>
	<path d="M20.83,9.95l-6.35,18.89H6.82L0.47,9.95h6.3l3.9,13l3.87-13H20.83z"/>
	<path d="M25.23,28.09c-1.21-0.62-2.16-1.52-2.84-2.68c-0.69-1.17-1.03-2.53-1.03-4.1c0-1.57,0.34-2.93,1.03-4.1
		c0.68-1.17,1.63-2.06,2.84-2.68s2.57-0.93,4.08-0.93c1.51,0,2.87,0.31,4.08,0.93c1.21,0.62,2.16,1.52,2.84,2.68
		c0.68,1.17,1.03,2.53,1.03,4.1c0,1.57-0.34,2.93-1.03,4.1c-0.69,1.17-1.63,2.06-2.84,2.68c-1.21,0.62-2.57,0.93-4.08,0.93
		C27.8,29.03,26.44,28.72,25.23,28.09z M30.7,23.25c0.37-0.44,0.56-1.08,0.56-1.93c0-0.85-0.19-1.5-0.56-1.94
		c-0.37-0.44-0.84-0.65-1.39-0.65c-0.55,0-1.01,0.22-1.39,0.65c-0.37,0.44-0.56,1.08-0.56,1.94c0,0.85,0.18,1.5,0.55,1.93
		c0.36,0.44,0.83,0.65,1.4,0.65C29.87,23.9,30.33,23.69,30.7,23.25z"/>
	<path d="M48.5,23.8v5.04h-2.24c-4.13,0-6.19-2.05-6.19-6.17v-3.95H38.2v-4.94h1.87v-3.63h5.92v3.63h2.46v4.94h-2.46v4.06
		c0,0.36,0.08,0.61,0.25,0.77s0.45,0.24,0.84,0.24H48.5z"/>
	<path d="M65.26,22.36h-9.53c0.09,1.3,0.63,1.95,1.63,1.95c0.64,0,1.1-0.29,1.39-0.88h6.27c-0.21,1.07-0.66,2.02-1.35,2.87
		c-0.68,0.85-1.55,1.51-2.59,2c-1.04,0.49-2.18,0.73-3.43,0.73c-1.49,0-2.83-0.31-3.99-0.93s-2.07-1.52-2.72-2.68
		c-0.65-1.17-0.97-2.53-0.97-4.1c0-1.57,0.32-2.93,0.97-4.1c0.65-1.17,1.56-2.06,2.72-2.68s2.5-0.93,3.99-0.93s2.82,0.31,3.99,0.92
		s2.07,1.49,2.72,2.63s0.97,2.48,0.97,4.03C65.34,21.59,65.31,21.98,65.26,22.36z M59.34,19.77c0-0.5-0.16-0.88-0.48-1.13
		c-0.32-0.26-0.72-0.39-1.2-0.39c-1.05,0-1.66,0.51-1.84,1.52H59.34z"/>
	<path d="M67.66,28.23c-0.62-0.55-0.93-1.25-0.93-2.08c0-0.85,0.31-1.56,0.93-2.12c0.62-0.56,1.45-0.84,2.48-0.84
		c1.01,0,1.83,0.28,2.46,0.84c0.62,0.56,0.93,1.27,0.93,2.12c0,0.84-0.31,1.53-0.93,2.08c-0.62,0.55-1.44,0.83-2.46,0.83
		C69.11,29.05,68.29,28.78,67.66,28.23z"/>
</g>
</svg>
