<svg xmlns="http://www.w3.org/2000/svg" viewBox="0 0 352.64 150.61"><defs><style>.cls-1{fill:#fff;}</style></defs><g id="Layer_1" data-name="Layer 1"><rect class="cls-1" x="169.48" y="18.85" width="5.54" height="20.57" rx="0.92"/><path class="cls-1" d="M179.52,39.42h3.41c.65,0,.93-.28.93-.93V27.23l7,11.39a1.52,1.52,0,0,0,1.41.8H196c.65,0,.92-.28.92-.93V19.78c0-.65-.27-.93-.92-.93h-3.51c-.65,0-.92.28-.92.93V31l-7-11.36a1.52,1.52,0,0,0-1.42-.8h-3.66c-.65,0-.93.28-.93.93V38.49C178.59,39.14,178.87,39.42,179.52,39.42Z"/><path class="cls-1" d="M206.18,31c1.76.65,2.71,1.17,2.71,2.74s-1,2-2.34,2a16.35,16.35,0,0,1-5.36-1.41c-.49-.22-.89-.09-1,.55l-.46,2.43a1.11,1.11,0,0,0,.67,1.33,18,18,0,0,0,6.5,1.14c4.19,0,7.23-2.5,7.23-6.31s-3-5.21-5.63-6.22c-1.94-.74-3.6-1.36-3.6-2.81s1.08-1.94,2.46-1.94a13.14,13.14,0,0,1,4.09.87c.59.21,1,.09,1.08-.53l.53-2.31a.92.92,0,0,0-.71-1.2,17,17,0,0,0-5-.83c-4.13,0-7.7,1.88-7.7,5.94S202.73,29.72,206.18,31Z"/><path class="cls-1" d="M216.1,23h4.55V38.49c0,.65.28.93.93.93h3.69c.65,0,.92-.28.92-.93V23h4.68c.65,0,.93-.28.93-.93V19.78c0-.65-.28-.93-.93-.93H216.1c-.65,0-.93.28-.93.93v2.27C215.17,22.7,215.45,23,216.1,23Z"/><rect class="cls-1" x="233.86" y="18.85" width="5.54" height="20.57" rx="0.92"/><path class="cls-1" d="M242.39,23H247V38.49c0,.65.27.93.92.93h3.7c.64,0,.92-.28.92-.93V23h4.68c.65,0,.92-.28.92-.93V19.78c0-.65-.27-.93-.92-.93H242.39c-.65,0-.92.28-.92.93v2.27C241.47,22.7,241.74,23,242.39,23Z"/><path class="cls-1" d="M268.22,39.76c6.25,0,8.25-2.68,8.25-8v-12c0-.65-.27-.93-.92-.93h-3.76c-.64,0-.92.28-.92.93V31.6c0,2.55-.28,3.88-2.59,3.88s-2.64-1.48-2.64-3.88V19.78c0-.65-.28-.93-.93-.93H261c-.65,0-.93.28-.93.93v12C260,37.23,262.31,39.76,268.22,39.76Z"/><path class="cls-1" d="M279.34,23h4.56V38.49c0,.65.27.93.92.93h3.69c.65,0,.93-.28.93-.93V23h4.68c.64,0,.92-.28.92-.93V19.78c0-.65-.28-.93-.92-.93H279.34c-.65,0-.93.28-.93.93v2.27C278.41,22.7,278.69,23,279.34,23Z"/><path class="cls-1" d="M304.89,39.76c7.61,0,9.12-5.27,9.12-10.63s-1.45-10.65-9-10.65-9.09,5.24-9.09,10.65S297.35,39.76,304.89,39.76ZM305,22.67c3.21,0,3.64,2.89,3.64,6.46s-.46,6.29-3.64,6.29-3.66-2.77-3.66-6.29S301.78,22.67,305,22.67Z"/><path class="cls-1" d="M170.4,70.21h3.7c.64,0,.92-.28.92-.92V63a13,13,0,0,0,2.46.22c4.16,0,7.33-2,7.33-6.77,0-5.92-4.12-7-8.37-7a35.87,35.87,0,0,0-6,.52c-.67.15-1,.46-1,1.11V69.29C169.48,69.93,169.76,70.21,170.4,70.21ZM175,53.43a7.09,7.09,0,0,1,1.42-.12c1.45,0,3,.58,3,3.26,0,2.37-1.38,2.86-3,2.86a10.7,10.7,0,0,1-1.39-.06Z"/><path class="cls-1" d="M195.47,70.55c7.6,0,9.11-5.27,9.11-10.62s-1.45-10.66-9-10.66-9.08,5.24-9.08,10.66S187.92,70.55,195.47,70.55Zm.06-17.09c3.2,0,3.63,2.89,3.63,6.47s-.46,6.28-3.63,6.28-3.67-2.77-3.67-6.28S192.36,53.46,195.53,53.46Z"/><path class="cls-1" d="M212.09,49.64H208.4c-.65,0-.93.28-.93.93V69.29c0,.64.28.92.93.92h11.76c.65,0,.92-.28.92-.92V67c0-.65-.27-.93-.92-.93H213V50.57C213,49.92,212.74,49.64,212.09,49.64Z"/><rect class="cls-1" x="223.15" y="49.64" width="5.54" height="20.57" rx="0.92"/><path class="cls-1" d="M236.23,53.77V69.29c0,.64.28.92.92.92h3.7c.65,0,.92-.28.92-.92V53.77h4.68c.65,0,.93-.28.93-.93V50.57c0-.65-.28-.93-.93-.93H231.67c-.64,0-.92.28-.92.93v2.27c0,.65.28.93.92.93Z"/><path class="cls-1" d="M262.8,53.8c.65,0,.93-.28.93-.93v-2.3c0-.65-.28-.93-.93-.93H250.36c-.64,0-.92.28-.92.93V69.29c0,.64.28.92.92.92h12.72c.65,0,.92-.28.92-.92V67c0-.65-.27-.93-.92-.93H255V61.59h7.33c.65,0,.92-.28.92-.93V58.45c0-.65-.27-.93-.92-.93H255V53.8Z"/><path class="cls-1" d="M253.29,46l.52,1.26c.28.62.62.77,1.23.52l5.36-2c.62-.24.74-.58.49-1.17l-1.14-2.46c-.24-.59-.61-.68-1.17-.37l-4.86,2.92A.92.92,0,0,0,253.29,46Z"/><path class="cls-1" d="M276.81,53.27a13.53,13.53,0,0,1,3.24.53c.58.15,1,0,1.1-.65l.46-2a.9.9,0,0,0-.76-1.17,16.13,16.13,0,0,0-4.44-.68c-5.17,0-10.37,2.5-10.37,10.59,0,8.47,4.68,10.72,10.16,10.72a29.8,29.8,0,0,0,4.37-.4.9.9,0,0,0,.86-1.08L281.31,67c0-.65-.31-.9-1-.84a29.7,29.7,0,0,1-3,.22c-3.12,0-5.61-1.17-5.61-6.59C271.7,54.78,274,53.27,276.81,53.27Z"/><path class="cls-1" d="M298.33,49.64c-.64,0-.92.28-.92.93V61.8l-7-11.36a1.52,1.52,0,0,0-1.41-.8h-3.67c-.65,0-.92.28-.92.93V69.29c0,.64.27.92.92.92h3.42c.65,0,.92-.28.92-.92V58l7,11.39a1.52,1.52,0,0,0,1.42.8h3.72c.65,0,.93-.28.93-.92V50.57c0-.65-.28-.93-.93-.93Z"/><rect class="cls-1" x="306.34" y="49.64" width="5.54" height="20.57" rx="0.92"/><path class="cls-1" d="M329.59,50a16.13,16.13,0,0,0-4.44-.68c-5.17,0-10.37,2.5-10.37,10.59,0,8.47,4.68,10.72,10.16,10.72a29.8,29.8,0,0,0,4.37-.4.9.9,0,0,0,.86-1.08L330.05,67c0-.65-.31-.9-1-.84a29.7,29.7,0,0,1-3,.22c-3.11,0-5.61-1.17-5.61-6.59,0-5,2.25-6.5,5.11-6.5a13.36,13.36,0,0,1,3.23.53c.59.15,1,0,1.11-.65l.47-2A.91.91,0,0,0,329.59,50Z"/><path class="cls-1" d="M341,49.27c-7.51,0-9.08,5.24-9.08,10.66s1.44,10.62,9,10.62S350,65.28,350,59.93,348.55,49.27,341,49.27Zm0,16.94c-3.17,0-3.67-2.77-3.67-6.28s.5-6.47,3.67-6.47,3.63,2.89,3.63,6.47S344.12,66.21,341,66.21Z"/><path class="cls-1" d="M176.68,80.28a46.74,46.74,0,0,0-6.22.49,1,1,0,0,0-1,1.08V99.71c0,.64.25,1,.83,1a35.45,35.45,0,0,0,6.22.47c4.83,0,9.82-1.67,9.82-10.32C186.35,82.1,182,80.28,176.68,80.28Zm-.46,16.59c-.31,0-.77,0-1.2,0V84.47a13.55,13.55,0,0,1,1.63-.1c3.54,0,4.22,2.59,4.22,6.35S180,96.87,176.22,96.87Z"/><path class="cls-1" d="M206.7,90.72c0-5.42-1.44-10.66-9-10.66s-9.08,5.24-9.08,10.66,1.45,10.62,9,10.62S206.7,96.07,206.7,90.72Zm-12.71,0c0-3.58.49-6.47,3.66-6.47s3.63,2.89,3.63,6.47S200.82,97,197.65,97,194,94.23,194,90.72Z"/><path class="cls-1" d="M229.46,80.74a16.13,16.13,0,0,0-4.44-.68c-5.17,0-10.37,2.5-10.37,10.59,0,8.47,4.68,10.72,10.16,10.72a29.67,29.67,0,0,0,4.37-.4.9.9,0,0,0,.86-1.08l-.12-2.12c0-.65-.31-.9-.95-.83s-2,.21-3.05.21c-3.11,0-5.61-1.17-5.61-6.59,0-5,2.25-6.49,5.11-6.49a13.56,13.56,0,0,1,3.24.52c.58.15,1,0,1.1-.65l.47-2A.91.91,0,0,0,229.46,80.74Z"/><path class="cls-1" d="M237,100.11l1.17-3.82h5.33l1.2,3.82a1.11,1.11,0,0,0,1.2.89h3.66c.65,0,.84-.28.65-.89l-6.16-18.78a1.11,1.11,0,0,0-1.2-.9H239a1.17,1.17,0,0,0-1.23.86l-6.31,18.85c-.22.58,0,.86.61.86h3.79A1.11,1.11,0,0,0,237,100.11Zm3.85-13.89,1.45,6.13H239.4Z"/><path class="cls-1" d="M242.73,72.52l-4.87,2.92a.93.93,0,0,0-.43,1.33L238,78c.28.62.62.77,1.24.52l5.35-2c.62-.24.74-.58.5-1.17l-1.14-2.46C243.65,72.3,243.28,72.21,242.73,72.52Z"/><path class="cls-1" d="M256,100.14a1.17,1.17,0,0,0,1.23.86h3.39a1.18,1.18,0,0,0,1.23-.86l6.28-18.85c.21-.58,0-.86-.62-.86h-3.69a1.11,1.11,0,0,0-1.2.9l-3.7,12.22-3.72-12.22a1.12,1.12,0,0,0-1.2-.9H250.3c-.64,0-.83.28-.61.86Z"/><path class="cls-1" d="M280.82,100.11a1.11,1.11,0,0,0,1.2.89h3.66c.65,0,.83-.28.65-.89l-6.16-18.78a1.12,1.12,0,0,0-1.2-.9h-3.91a1.17,1.17,0,0,0-1.23.86l-6.32,18.85c-.21.58,0,.86.62.86h3.79a1.12,1.12,0,0,0,1.2-.89l1.17-3.82h5.32Zm-5.33-7.76L277,86.22l1.44,6.13Z"/><path class="cls-1" d="M295.53,80.28a46.74,46.74,0,0,0-6.22.49,1,1,0,0,0-1,1.08V99.71c0,.64.25,1,.83,1a35.45,35.45,0,0,0,6.22.47c4.83,0,9.82-1.67,9.82-10.32C305.2,82.1,300.8,80.28,295.53,80.28Zm-.46,16.59c-.31,0-.77,0-1.2,0V84.47a13.55,13.55,0,0,1,1.63-.1c3.54,0,4.22,2.59,4.22,6.35S298.86,96.87,295.07,96.87Z"/><path class="cls-1" d="M316.53,80.06c-7.51,0-9.08,5.24-9.08,10.66s1.45,10.62,9,10.62,9.11-5.27,9.11-10.62S324.11,80.06,316.53,80.06Zm0,16.94c-3.17,0-3.66-2.77-3.66-6.28s.49-6.47,3.66-6.47,3.63,2.89,3.63,6.47S319.67,97,316.5,97Z"/><path class="cls-1" d="M183.12,127.6H175v-4.43h7.33c.65,0,.92-.28.92-.92V120c0-.65-.27-.92-.92-.92H175v-3.73h7.82c.65,0,.93-.28.93-.92v-2.31c0-.65-.28-.93-.93-.93H170.4c-.64,0-.92.28-.92.93v18.72c0,.64.28.92.92.92h12.72c.65,0,.92-.28.92-.92v-2.34C184,127.88,183.77,127.6,183.12,127.6Z"/><path class="cls-1" d="M199.93,111.07a48.47,48.47,0,0,0-6.22.49,1,1,0,0,0-1,1.08V130.5c0,.64.24.95.83,1a35.45,35.45,0,0,0,6.22.47c4.83,0,9.82-1.67,9.82-10.32S205.19,111.07,199.93,111.07Zm-.46,16.59c-.31,0-.77,0-1.2,0V115.26a13.43,13.43,0,0,1,1.63-.1c3.54,0,4.22,2.59,4.22,6.35S203.26,127.66,199.47,127.66Z"/><path class="cls-1" d="M220.93,110.85c-7.51,0-9.08,5.24-9.08,10.66s1.44,10.62,9,10.62,9.11-5.27,9.11-10.62S228.5,110.85,220.93,110.85Zm0,16.94c-3.17,0-3.67-2.77-3.67-6.28s.5-6.47,3.67-6.47,3.63,2.9,3.63,6.47S224.07,127.79,220.9,127.79Z"/><path class="cls-1" d="M248.85,112.12a1.11,1.11,0,0,0-1.2-.9h-3.91a1.18,1.18,0,0,0-1.23.87l-6.31,18.84c-.22.58,0,.86.62.86h3.78a1.11,1.11,0,0,0,1.2-.89l1.17-3.82h5.33l1.2,3.82a1.12,1.12,0,0,0,1.2.89h3.67c.64,0,.83-.28.64-.89Zm-4.68,11,1.48-6.13,1.45,6.13Z"/><path class="cls-1" d="M272.26,111.22h-3.7a1.11,1.11,0,0,0-1.2.9l-3.7,12.22-3.72-12.22a1.11,1.11,0,0,0-1.2-.9h-3.67c-.64,0-.83.28-.61.87l6.28,18.84a1.17,1.17,0,0,0,1.23.86h3.39a1.18,1.18,0,0,0,1.23-.86l6.28-18.84C273.09,111.5,272.9,111.22,272.26,111.22Z"/><path class="cls-1" d="M288.48,127.6h-8.1v-4.43h7.33c.65,0,.93-.28.93-.92V120c0-.65-.28-.92-.93-.92h-7.33v-3.73h7.82c.65,0,.93-.28.93-.92v-2.31c0-.65-.28-.93-.93-.93H275.77c-.65,0-.93.28-.93.93v18.72c0,.64.28.92.93.92h12.71c.65,0,.92-.28.92-.92v-2.34C289.4,127.88,289.13,127.6,288.48,127.6Z"/><path class="cls-1" d="M0,150.61H150.62V0H0ZM112.77,56.47h13.15l13,37.65h-10l-2.06-6H113.4l4.42-3.28h-3.28L119,81.62h-3.3l4.43-3.28h3.35l-4.1-11.86-9.55,27.64h-10ZM65.43,71A14.53,14.53,0,0,1,79.94,56.47H97.55v2l-5.08,1.34,5.08.66v2l-5.08.66,5.08,1.34v2H80.35a4.9,4.9,0,0,0-4.9,4.9V79.2a4.9,4.9,0,0,0,4.9,4.9h17.2v2l-5.08,1.34,5.08.67v2l-5.08.67,5.08,1.33v2H79.94A14.54,14.54,0,0,1,65.43,79.6Zm-35-10.36V56.47h17A14.53,14.53,0,0,1,62,71h0v2.85A14.54,14.54,0,0,1,47.5,88.36h-5v-10H52.1V66.48H40.48V94.12h-10ZM11.71,88.17h1.75v-4.3H11.71V79.58h1.75V75.29H11.71V71h1.75V66.71H11.71V62.42h1.75v-3H11.71v-3H24.48v6H22.73v4.29h1.75V71H22.73v4.29h1.75v4.29H22.73v4.29h1.75v4.3H22.73v3h1.75v3H11.71Z"/></g></svg>