<svg xmlns="http://www.w3.org/2000/svg" viewBox="0 0 255.13 255.12"><defs><style>.cls-1{fill:#231f20;}</style></defs><g id="Camada_2" data-name="Camada 2"><g id="Logos"><path class="cls-1" d="M0,0V255.12H255.13V0ZM41.47,105.73h-3V113h3v7.27h-3v7.27h3v7.27h-3v7.26h3v7.27h-3v5h3v5H19.83V149.34h3v-7.27h-3v-7.26h3v-7.27h-3v-7.27h3V113h-3v-7.27h3v-5h-3v-5H41.47ZM105,125.07a24.61,24.61,0,0,1-24.57,24.6H72v-17H88.26V112.62H68.58v46.81h-17V95.65H80.45A24.61,24.61,0,0,1,105,120.23v0h0Zm60.19-26-8.6,2.27,8.6,1.13v3.39l-8.6,1.13,8.6,2.27v3.39H136.1a8.3,8.3,0,0,0-8.3,8.29v13.25a8.3,8.3,0,0,0,8.3,8.29h29.13v3.4l-8.6,2.26,8.6,1.13v3.39l-8.6,1.13,8.6,2.26v3.4H135.42a24.61,24.61,0,0,1-24.58-24.59V120.24a24.61,24.61,0,0,1,24.58-24.59h29.81Zm53.11,60.39-3.49-10.09H192.09l7.49-5.55H194l7.49-5.55h-5.58l7.49-5.55h5.69l-6.95-20.08L186,159.43H169l22-63.78h22.28l22,63.78Z"/></g></g></svg>